<svg id="Capa_1" enable-background="new 0 0 150.241 150.241" viewBox="0 0 150.241 150.241" xmlns="http://www.w3.org/2000/svg"><g><path d="m28.935 150.241c-5.83-.002-10.555-4.728-10.556-10.557v-129.128c.006-5.827 4.727-10.549 10.554-10.556h92.374c5.827.007 10.549 4.729 10.554 10.556v128.968c-.001 5.83-4.727 10.555-10.557 10.555-2.088 0-4.13-.62-5.866-1.781l-37.818-25.279c-1.172-.786-2.701-.793-3.881-.02l-39.034 25.52c-1.715 1.123-3.72 1.721-5.77 1.722zm0-143.204c-1.942.002-3.515 1.577-3.517 3.519v129.127c0 1.943 1.575 3.519 3.518 3.519.684 0 1.353-.199 1.925-.573l39.028-25.521c3.541-2.32 8.127-2.297 11.644.06l37.819 25.281c1.616 1.08 3.801.645 4.88-.971.386-.578.593-1.258.593-1.954v-128.968c-.002-1.942-1.575-3.516-3.517-3.519z"/></g><g/><g/><g/><g/><g/><g/><g/><g/><g/><g/><g/><g/><g/><g/><g/></svg>