<?xml version="1.0"?>
<svg xmlns="http://www.w3.org/2000/svg" viewBox="0 0 25 25" width="512" height="512"><g id="Layer_13" data-name="Layer 13"><path d="M20.24,2.05H4.76A2.72,2.72,0,0,0,2.05,4.76V7a.5.5,0,0,0,.5.5H4.26V20.24A2.72,2.72,0,0,0,7,23H18a2.72,2.72,0,0,0,2.71-2.71V7.47h1.71A.5.5,0,0,0,23,7V4.76A2.72,2.72,0,0,0,20.24,2.05Zm-.5,18.19A1.72,1.72,0,0,1,18,22H7a1.72,1.72,0,0,1-1.71-1.71V7.47H19.74ZM22,6.47H3.05V4.76A1.72,1.72,0,0,1,4.76,3.05H20.24A1.72,1.72,0,0,1,22,4.76Z"/><path d="M9.18,18.53a.5.5,0,0,0,.5-.5V11.39a.5.5,0,0,0-.5-.5.51.51,0,0,0-.5.5V18A.51.51,0,0,0,9.18,18.53Z"/><path d="M15.82,18.53a.51.51,0,0,0,.5-.5V11.39a.51.51,0,0,0-.5-.5.5.5,0,0,0-.5.5V18A.5.5,0,0,0,15.82,18.53Z"/></g></svg>
