<?xml version="1.0"?>
<svg xmlns="http://www.w3.org/2000/svg" viewBox="0 0 25 25" width="512" height="512"><g id="Layer_37" data-name="Layer 37"><path d="M20.28,3H4.72A2.62,2.62,0,0,0,2,5.5v10A2.62,2.62,0,0,0,4.72,18h8.7l4.3,3.87a.47.47,0,0,0,.34.13.5.5,0,0,0,.5-.5V18h1.72A2.62,2.62,0,0,0,23,15.5V5.5A2.62,2.62,0,0,0,20.28,3ZM22,15.5A1.62,1.62,0,0,1,20.28,17H18.06a.5.5,0,0,0-.5.5v2.88L14,17.13a.55.55,0,0,0-.34-.13H4.72A1.62,1.62,0,0,1,3,15.5V5.5A1.62,1.62,0,0,1,4.72,4H20.28A1.62,1.62,0,0,1,22,5.5Z"/></g></svg>
