<svg height="512" viewBox="0 0 25 25" width="512" xmlns="http://www.w3.org/2000/svg"><g id="Layer_50" data-name="Layer 50"><path d="m21.41 10.71c-.41-.26-1-.62-1-.86a3.15 3.15 0 0 1 .37-1.4c.34-.85.69-1.72.25-2.36s-1.38-.57-2.28-.5a3 3 0 0 1 -1.34 0 3.38 3.38 0 0 1 -.46-1.34c-.2-.91-.41-1.85-1.16-2.1s-1.42.37-2.09 1c-.38.34-.89.8-1.15.8s-.78-.46-1.16-.8c-.66-.61-1.35-1.23-2.09-1s-.99 1.15-1.19 2.06a3.4 3.4 0 0 1 -.47 1.33 2.82 2.82 0 0 1 -1.34 0c-.89-.08-1.82-.16-2.27.5s-.1 1.51.24 2.36a3.19 3.19 0 0 1 .38 1.4c-.08.24-.64.6-1.05.86-.77.48-1.57 1-1.57 1.8s.8 1.32 1.57 1.81c.41.26 1 .61 1.05.85a3.23 3.23 0 0 1 -.38 1.41c-.34.85-.69 1.72-.24 2.36s1.38.57 2.27.49a3 3 0 0 1 1.34.05 3.47 3.47 0 0 1 .47 1.33c.2.91.41 1.86 1.15 2.11a1.06 1.06 0 0 0 .34.13 3 3 0 0 0 1.75-1c.38-.34.9-.81 1.16-.81s.77.47 1.15.81c.67.6 1.36 1.23 2.09 1s1-1.2 1.16-2.11a3.32 3.32 0 0 1 .46-1.33 3 3 0 0 1 1.34-.05c.9.08 1.82.17 2.28-.49s.09-1.51-.25-2.36a3.19 3.19 0 0 1 -.37-1.41c.07-.24.63-.59 1-.85.78-.49 1.58-1 1.58-1.81s-.76-1.4-1.54-1.88zm-.53 2.77c-.66.41-1.28.8-1.47 1.4a3.37 3.37 0 0 0 .4 2.07c.19.46.49 1.22.36 1.42s-.9.11-1.37.07a2.94 2.94 0 0 0 -2 .25 3.2 3.2 0 0 0 -.84 1.91c-.1.45-.29 1.3-.5 1.37s-.82-.52-1.1-.77a3.18 3.18 0 0 0 -1.82-1.07 3.17 3.17 0 0 0 -1.83 1.07c-.27.25-.93.83-1.1.77s-.4-.92-.5-1.37a3.2 3.2 0 0 0 -.83-1.91 1.87 1.87 0 0 0 -1.17-.3 8.62 8.62 0 0 0 -.87.05c-.46 0-1.24.11-1.36-.07s.12-.96.32-1.37a3.37 3.37 0 0 0 .4-2.07c-.18-.6-.8-1-1.46-1.4-.44-.28-1.11-.7-1.11-1s.67-.68 1.11-1c.66-.41 1.28-.81 1.46-1.4a3.4 3.4 0 0 0 -.4-2.08c-.2-.43-.49-1.2-.35-1.39s.9-.11 1.36-.07a3 3 0 0 0 2-.25 3.2 3.2 0 0 0 .83-1.91c.1-.45.29-1.3.5-1.37s.83.52 1.1.77a3.15 3.15 0 0 0 1.83 1.06 3.16 3.16 0 0 0 1.82-1.06c.28-.25.93-.83 1.1-.77s.4.92.5 1.37a3.2 3.2 0 0 0 .84 1.91 2.94 2.94 0 0 0 2 .25c.47 0 1.24-.11 1.37.07s-.17 1-.36 1.41a3.4 3.4 0 0 0 -.4 2.08c.19.59.81 1 1.47 1.4.44.28 1.11.7 1.11 1s-.6.65-1.04.93z"/><path d="m15.44 9.31-4.08 5.34-1.82-1.9a.49.49 0 0 0 -.7 0 .5.5 0 0 0 0 .71l2.16 2.3a.48.48 0 0 0 .36.15.54.54 0 0 0 .37-.19l4.43-5.8a.5.5 0 0 0 -.79-.61z"/></g></svg>