<?xml version="1.0"?>
<svg xmlns="http://www.w3.org/2000/svg" viewBox="0 0 25 25" width="512" height="512"><g id="Layer_20" data-name="Layer 20"><path d="M20.24,2.05H4.76A2.72,2.72,0,0,0,2.05,4.76V20.24A2.72,2.72,0,0,0,4.76,23H20.24A2.72,2.72,0,0,0,23,20.24V4.76A2.72,2.72,0,0,0,20.24,2.05Zm0,19.9H4.76a1.72,1.72,0,0,1-1.71-1.71V4.76A1.72,1.72,0,0,1,4.76,3.05H20.24A1.72,1.72,0,0,1,22,4.76V7h-8.2a2.86,2.86,0,0,0-2.86,2.85v5.3A2.86,2.86,0,0,0,13.75,18H22v2.24A1.72,1.72,0,0,1,20.24,22ZM22,17h-8.2a1.85,1.85,0,0,1-1.86-1.85V9.85A1.85,1.85,0,0,1,13.75,8H22Z"/><path d="M17,15a2.5,2.5,0,1,0-2.5-2.5A2.5,2.5,0,0,0,17,15Zm0-4a1.5,1.5,0,1,1-1.5,1.5A1.5,1.5,0,0,1,17,11Z"/></g></svg>
